<svg width="120" height="120" viewBox="0 0 120 120" fill="none" xmlns="http://www.w3.org/2000/svg">
<g clip-path="url(#clip0)">
<g clip-path="url(#clip1)">
<path d="M97.7776 113.572L89.5646 110.91C88.9099 110.698 88.1972 110.991 87.8856 111.6L83.9765 119.242C83.4367 120.297 81.8978 120.239 81.4412 119.145L61.897 72.3516L79.9573 64.9326L99.5016 111.726C99.9579 112.819 98.9114 113.94 97.7776 113.572Z" fill="#44C4A1"/>
<path d="M23.2224 113.572L31.4354 110.91C32.0901 110.698 32.8028 110.991 33.1144 111.6L37.0235 119.242C37.5633 120.297 39.1022 120.239 39.5588 119.145L59.103 72.3516L41.0427 64.9326L21.4984 111.726C21.0421 112.819 22.0886 113.94 23.2224 113.572Z" fill="#44C4A1"/>
<path d="M63.5329 1.28862L68.1331 6.07767C69.2155 7.2044 70.8423 7.63669 72.3479 7.19774L78.7466 5.33147C81.0426 4.66189 83.4365 6.03257 83.9998 8.33933L85.5695 14.7679C85.9387 16.2805 87.1296 17.4616 88.6549 17.8277L95.137 19.3845C97.463 19.9431 98.8451 22.3172 98.1699 24.5943L96.2881 30.9401C95.8452 32.4332 96.2811 34.0466 97.4175 35.12L102.246 39.6823C103.979 41.3195 103.979 44.0608 102.246 45.698L97.4175 50.2603C96.2814 51.3337 95.8455 52.947 96.2881 54.4402L98.1699 60.786C98.8451 63.063 97.463 65.4372 95.137 65.9958L88.6549 67.5525C87.1296 67.9187 85.9387 69.0998 85.5695 70.6124L83.9998 77.0409C83.4365 79.3477 81.0426 80.7184 78.7466 80.0488L72.3479 78.1825C70.8423 77.7433 69.2155 78.1756 68.1331 79.3026L63.5329 84.0916C61.882 85.8101 59.1178 85.8101 57.467 84.0916L52.8667 79.3026C51.7843 78.1759 50.1576 77.7436 48.6519 78.1825L42.2533 80.0488C39.9573 80.7184 37.5633 79.3477 37.0001 77.0409L35.4304 70.6124C35.0611 69.0998 33.8702 67.9187 32.345 67.5525L25.8629 65.9958C23.5369 65.4372 22.1548 63.063 22.8299 60.786L24.7118 54.4402C25.1546 52.947 24.7187 51.3337 23.5824 50.2603L18.7534 45.698C17.0207 44.0608 17.0207 41.3195 18.7534 39.6823L23.5824 35.12C24.7185 34.0466 25.1544 32.4332 24.7118 30.9401L22.8299 24.5943C22.1548 22.3172 23.5369 19.9431 25.8629 19.3845L32.345 17.8277C33.8702 17.4616 35.0611 16.2805 35.4304 14.7679L37.0001 8.33933C37.5633 6.03257 39.9573 4.66189 42.2533 5.33147L48.6519 7.19774C50.1576 7.63695 51.7843 7.20466 52.8667 6.07767L57.467 1.28862C59.1178 -0.429539 61.8823 -0.429539 63.5329 1.28862Z" fill="#E1E6E9"/>
<path d="M60.4997 71.6163C76.6093 71.6163 89.6688 58.6648 89.6688 42.6883C89.6688 26.7118 76.6093 13.7603 60.4997 13.7603C44.39 13.7603 31.3306 26.7118 31.3306 42.6883C31.3306 58.6648 44.39 71.6163 60.4997 71.6163Z" fill="#E56353"/>
<path d="M61.7519 27.2152L66.0693 35.891C66.2726 36.2998 66.6659 36.5829 67.1207 36.6485L76.7747 38.0397C77.9199 38.2047 78.3772 39.6005 77.5486 40.4018L70.5629 47.155C70.2337 47.4733 70.0836 47.9314 70.1613 48.3806L71.8104 57.9162C72.006 59.0476 70.8089 59.9101 69.7844 59.3761L61.1494 54.874C60.7427 54.6618 60.2567 54.6618 59.85 54.874L51.215 59.3761C50.1905 59.9101 48.9934 59.0476 49.189 57.9162L50.838 48.3806C50.9158 47.9314 50.7654 47.473 50.4365 47.155L43.4508 40.4018C42.6221 39.6008 43.0792 38.2047 44.2246 38.0397L53.8787 36.6485C54.3334 36.5829 54.7267 36.2998 54.9301 35.891L59.2474 27.2152C59.76 26.1861 61.2398 26.1861 61.7519 27.2152Z" fill="#FCD462"/>
</g>
</g>
<defs>
<clipPath id="clip0">
<rect width="120" height="120" fill="white"/>
</clipPath>
<clipPath id="clip1">
<rect width="121" height="120" fill="white"/>
</clipPath>
</defs>
</svg>
