<svg width="40" height="40" viewBox="0 0 40 40" fill="none" xmlns="http://www.w3.org/2000/svg">
<circle cx="20" cy="20" r="20" fill="white"/>
<path fill-rule="evenodd" clip-rule="evenodd" d="M8.7225 15.0336L5 11.4636L15.8837 5L20.06 8.19773L24.0725 5L35 11.3259L31.2325 14.9805L31.25 14.9914L35 20.6027L31.25 22.8309V28.4518L20 35L8.75 28.4518V22.8405L10 23.5823V27.6336L19.3763 33.0909V22.3332L16.25 27.2886L5 20.6164L8.7225 15.0336ZM20.6263 22.3509V33.0895L30 27.6336V23.5741L23.75 27.2886L20.6263 22.3509ZM6.84875 20.1609L15.8588 25.5036L18.1675 21.8436L9.12875 16.7409L6.84875 20.1609ZM21.835 21.8614L24.14 25.5036L33.15 20.1486L30.8725 16.7423L21.835 21.8614ZM9.98875 15.6909L20.0013 9.65L30 15.7005L20.0363 21.3636L9.98875 15.6909ZM7.16875 11.7282L9.80125 14.2523L18.7513 8.86182L15.8 6.60227L7.16875 11.7282ZM21.26 8.93L30.105 14.2495L32.825 11.6109L24.1775 6.605L21.26 8.93Z" fill="black"/>
</svg>
