<svg width="120" height="120" viewBox="0 0 120 120" fill="none" xmlns="http://www.w3.org/2000/svg">
<g clip-path="url(#clip0)">
<path d="M99.468 17.7579H0V4.51694C0 2.74959 1.44463 1.31689 3.22671 1.31689H96.2413C98.0233 1.31689 99.468 2.74959 99.468 4.51694V17.7579Z" fill="#3A556A"/>
<path d="M96.2413 96.6746H3.22671C1.44463 96.6746 0 95.2419 0 93.4745V17.7578H99.468V93.4745C99.468 95.2419 98.0233 96.6746 96.2413 96.6746Z" fill="#E1E6E9"/>
<path d="M10.7754 13.6478C13.0645 13.6478 14.9201 11.8074 14.9201 9.53726C14.9201 7.26709 13.0645 5.42676 10.7754 5.42676C8.48629 5.42676 6.63062 7.26709 6.63062 9.53726C6.63062 11.8074 8.48629 13.6478 10.7754 13.6478Z" fill="#FCD462"/>
<path d="M24.0386 13.6478C26.3276 13.6478 28.1833 11.8074 28.1833 9.53726C28.1833 7.26709 26.3276 5.42676 24.0386 5.42676C21.7495 5.42676 19.8938 7.26709 19.8938 9.53726C19.8938 11.8074 21.7495 13.6478 24.0386 13.6478Z" fill="#27A2DB"/>
<path d="M37.3003 13.6478C39.5894 13.6478 41.445 11.8074 41.445 9.53726C41.445 7.26709 39.5894 5.42676 37.3003 5.42676C35.0112 5.42676 33.1555 7.26709 33.1555 9.53726C33.1555 11.8074 35.0112 13.6478 37.3003 13.6478Z" fill="#44C4A1"/>
<path d="M113.654 88.8941L121 87.1014V77.924L113.654 76.1313C112.891 72.6927 111.52 69.4865 109.667 66.6109L113.589 60.1813L107.046 53.6918L100.562 57.5821C97.6628 55.7441 94.4301 54.3852 90.9631 53.6285L89.1552 46.3428H79.9011L78.0932 53.6285C74.6257 54.3852 71.393 55.7446 68.4931 57.5827L62.0095 53.6925L55.4659 60.1823L59.3887 66.6121C57.5355 69.4878 56.1648 72.6935 55.4021 76.1318L48.0559 77.9248V87.1021L55.4021 88.8949C56.1651 92.3335 57.5355 95.5394 59.3889 98.4151L55.4667 104.845L62.0103 111.334L68.4931 107.444C71.393 109.282 74.6259 110.642 78.0934 111.398L79.9011 118.683H89.1552L90.9628 111.398C94.4306 110.642 97.6638 109.282 100.563 107.444L107.046 111.333L113.589 104.844L109.667 98.4151C111.52 95.5394 112.891 92.333 113.654 88.8941Z" fill="#27A2DB"/>
<path d="M84.529 105.53C97.3473 105.53 107.738 95.2246 107.738 82.5123C107.738 69.8 97.3473 59.4946 84.529 59.4946C71.7108 59.4946 61.3196 69.8 61.3196 82.5123C61.3196 95.2246 71.7108 105.53 84.529 105.53Z" fill="#E1E6E9"/>
<path d="M84.529 95.6639C91.8532 95.6639 97.7906 89.7756 97.7906 82.5119C97.7906 75.2482 91.8532 69.3599 84.529 69.3599C77.2048 69.3599 71.2673 75.2482 71.2673 82.5119C71.2673 89.7756 77.2048 95.6639 84.529 95.6639Z" fill="#1C75A1"/>
<path d="M17.8965 44.2079L16.2012 48.0276H13.1489L20.6088 31.2373H23.6611L31.1209 48.0276H28.0696L26.3736 44.2079H17.8965ZM25.2114 41.5906L22.1353 34.6723L19.0592 41.5906H25.2114Z" fill="#3A556A"/>
<path d="M44.9032 32.702C46.082 33.6793 46.6713 35.1846 46.6713 37.2176C46.6713 39.2525 46.0691 40.7423 44.8668 41.6864C43.6635 42.6307 41.8184 43.1037 39.3319 43.1037H36.329V48.028H33.4707V31.2378H39.2836C41.8509 31.2378 43.7245 31.7265 44.9032 32.702ZM42.8808 39.632C43.4534 39.0319 43.7402 38.1522 43.7402 36.9911C43.7402 35.83 43.3764 35.0088 42.6501 34.528C41.9238 34.0471 40.7853 33.8087 39.235 33.8087H36.3284V40.5335H39.6469C41.229 40.533 42.3072 40.2339 42.8808 39.632Z" fill="#3A556A"/>
<path d="M50.0378 31.2378H52.8961V48.028H50.0378V31.2378Z" fill="#3A556A"/>
<path d="M89.7883 12.7375H51.5783C49.7962 12.7375 48.3516 11.3048 48.3516 9.53745C48.3516 7.77009 49.7962 6.3374 51.5783 6.3374H89.788C91.5701 6.3374 93.0147 7.77009 93.0147 9.53745C93.0147 11.3048 91.5701 12.7375 89.7883 12.7375Z" fill="#E1E6E9"/>
</g>
<defs>
<clipPath id="clip0">
<rect width="120" height="120" fill="white"/>
</clipPath>
</defs>
</svg>
