<svg width="120" height="120" viewBox="0 0 120 120" fill="none" xmlns="http://www.w3.org/2000/svg">
<g clip-path="url(#clip0)">
<path d="M121 59.9998C106.964 77.9199 85.1839 89.5998 60.5001 89.5998C35.8163 89.5998 14.036 77.9199 0 59.9998C14.036 42.0798 35.8161 30.3999 60.4999 30.3999C85.1837 30.3999 106.964 42.08 121 59.9998Z" fill="#3383B3"/>
<path d="M60.4997 85.5996C74.756 85.5996 86.3129 74.1382 86.3129 59.9998C86.3129 45.8614 74.756 34.3999 60.4997 34.3999C46.2435 34.3999 34.6865 45.8614 34.6865 59.9998C34.6865 74.1382 46.2435 85.5996 60.4997 85.5996Z" fill="#27A2DB"/>
<path d="M74.6971 63.0399L60.4999 77.1198L46.3024 63.0399C42.4305 59.2 42.4305 52.7999 46.3024 48.96C50.1743 45.1201 56.6277 45.1201 60.4996 48.96C64.3715 45.1201 70.8249 45.1201 74.6968 48.96C78.5687 52.7999 78.569 59.1997 74.6971 63.0399Z" fill="#E56353"/>
</g>
<defs>
<clipPath id="clip0">
<rect width="120" height="120" fill="white"/>
</clipPath>
</defs>
</svg>
