<svg width="120" height="120" viewBox="0 0 120 120" fill="none" xmlns="http://www.w3.org/2000/svg">
<g clip-path="url(#clip0)">
<g clip-path="url(#clip1)">
<path d="M61.6193 58.1113L0.00366211 88.0606L61.6196 119.998L121 88.0606L61.6193 58.1113Z" fill="#44C4A1"/>
<path d="M99.2653 76.3815L61.6273 96.621L22.5537 76.3815L61.6273 57.3901L99.2653 76.3815Z" fill="#31978C"/>
<path d="M120.996 59.0001L61.6273 90.935L0 59.0001L22.5537 48.0404L61.6273 29.0493L99.2653 48.0404L120.996 59.0001Z" fill="#27A2DB"/>
<path d="M99.2653 48.0404L61.6273 68.2799L22.5537 48.0404L61.6273 29.0493L99.2653 48.0404Z" fill="#1C75A1"/>
<path d="M61.6201 0.00244141L0.00439453 29.9514L61.6203 61.8886L121.001 29.9514L61.6201 0.00244141Z" fill="#FCD462"/>
</g>
</g>
<defs>
<clipPath id="clip0">
<rect width="120" height="120" fill="white"/>
</clipPath>
<clipPath id="clip1">
<rect width="121" height="120" fill="white"/>
</clipPath>
</defs>
</svg>
